<?xml version="1.0" encoding="UTF-8" standalone="no"?>
<!-- Generator: Adobe Illustrator 21.0.0, SVG Export Plug-In . SVG Version: 6.00 Build 0)  -->

<svg
   xmlns:dc="http://purl.org/dc/elements/1.1/"
   xmlns:cc="http://creativecommons.org/ns#"
   xmlns:rdf="http://www.w3.org/1999/02/22-rdf-syntax-ns#"
   xmlns:svg="http://www.w3.org/2000/svg"
   xmlns="http://www.w3.org/2000/svg"
   xmlns:sodipodi="http://sodipodi.sourceforge.net/DTD/sodipodi-0.dtd"
   xmlns:inkscape="http://www.inkscape.org/namespaces/inkscape"
   version="1.1"
   id="Layer_1"
   x="0px"
   y="0px"
   viewBox="0 0 512.00001 512.00001"
   xml:space="preserve"
   inkscape:version="0.91 r13725"
   sodipodi:docname="icon-no-bg.svg"
   width="512"
   height="512"
   inkscape:export-filename="A:\git\nyc-tile-example\src\main\webapp\show\img\icon-60.png"
   inkscape:export-xdpi="10.546875"
   inkscape:export-ydpi="10.546875"><metadata
     id="metadata35"><rdf:RDF><cc:Work
         rdf:about=""><dc:format>image/svg+xml</dc:format><dc:type
           rdf:resource="http://purl.org/dc/dcmitype/StillImage" /><dc:title></dc:title></cc:Work></rdf:RDF></metadata><defs
     id="defs33" /><sodipodi:namedview
     pagecolor="#ffffff"
     bordercolor="#666666"
     borderopacity="1"
     objecttolerance="10"
     gridtolerance="10"
     guidetolerance="10"
     inkscape:pageopacity="0"
     inkscape:pageshadow="2"
     inkscape:window-width="1600"
     inkscape:window-height="838"
     id="namedview31"
     showgrid="false"
     inkscape:zoom="1.3066406"
     inkscape:cx="256"
     inkscape:cy="256"
     inkscape:window-x="-8"
     inkscape:window-y="152"
     inkscape:window-maximized="1"
     inkscape:current-layer="Layer_1" /><style
     type="text/css"
     id="style3">
	.st0{fill:#FFFFFF;}
	.st1{fill:#FCB315;}
</style><g
     id="g4187"
     transform="translate(-1.7888182e-6,10.000002)"><g
       id="g4171"
       transform="matrix(3.0769246,0,0,3.0769246,-451.07727,9.692308)"><path
         style="fill:#ffffff"
         inkscape:connector-curvature="0"
         id="path7"
         d="m 154.4,9 0,-8.9 39.6,0 0,8.9 -14.5,0 0,39.4 -10.6,0 0,-39.4 -14.5,0 z"
         class="st0" /><path
         style="fill:#ffffff"
         inkscape:connector-curvature="0"
         id="path9"
         d="m 206.5,0.1 0,18.2 0.2,0 c 1.2,-2 2.8,-3.5 4.7,-4.4 1.9,-0.9 3.7,-1.4 5.5,-1.4 2.6,0 4.7,0.4 6.3,1 1.6,0.7 2.9,1.7 3.9,2.9 0.9,1.2 1.6,2.8 2,4.5 0.4,1.8 0.6,3.8 0.6,5.9 l 0,21.5 -9.6,0 0,-19.6 c 0,-2.9 -0.5,-5 -1.4,-6.5 -0.9,-1.4 -2.5,-2.1 -4.8,-2.1 -2.6,0 -4.5,0.8 -5.7,2.3 -1.2,1.6 -1.8,4.1 -1.8,7.7 l 0,18.3 -9.6,0 0,-48.3 9.7,0 z"
         class="st0" /><path
         style="fill:#ffffff"
         inkscape:connector-curvature="0"
         id="path11"
         d="m 245.6,40 c 1.4,1.4 3.5,2.1 6.2,2.1 1.9,0 3.6,-0.5 5,-1.5 1.4,-1 2.3,-2 2.6,-3.1 l 8.5,0 c -1.4,4.2 -3.4,7.2 -6.2,9 -2.8,1.8 -6.2,2.7 -10.1,2.7 -2.8,0 -5.2,-0.4 -7.4,-1.3 -2.2,-0.9 -4.1,-2.1 -5.6,-3.8 -1.5,-1.6 -2.7,-3.6 -3.6,-5.8 -0.8,-2.3 -1.3,-4.7 -1.3,-7.4 0,-2.6 0.4,-5 1.3,-7.3 0.9,-2.3 2.1,-4.2 3.7,-5.9 1.6,-1.6 3.5,-2.9 5.6,-3.9 2.2,-0.9 4.6,-1.4 7.3,-1.4 3,0 5.6,0.6 7.8,1.7 2.2,1.1 4,2.7 5.4,4.6 1.4,1.9 2.4,4.1 3.1,6.6 0.6,2.5 0.9,5.1 0.7,7.8 l -25.2,0 c -0.1,3.3 0.7,5.5 2.2,6.9 z m 10.8,-18.4 c -1.1,-1.3 -2.9,-1.9 -5.2,-1.9 -1.5,0 -2.8,0.3 -3.8,0.8 -1,0.5 -1.8,1.2 -2.4,1.9 -0.6,0.8 -1,1.6 -1.3,2.4 -0.2,0.9 -0.4,1.6 -0.4,2.3 l 15.6,0 c -0.5,-2.4 -1.3,-4.2 -2.5,-5.5 z"
         class="st0" /><path
         style="fill:#ffffff"
         inkscape:connector-curvature="0"
         id="path13"
         d="m 281.5,13.4 0,4.9 0.2,0 c 1.2,-2 2.8,-3.5 4.7,-4.4 1.9,-0.9 3.9,-1.4 6,-1.4 2.6,0 4.7,0.4 6.3,1 1.6,0.7 2.9,1.7 3.9,2.9 0.9,1.2 1.6,2.8 2,4.5 0.4,1.8 0.6,3.8 0.6,5.9 l 0,21.5 -9.6,0 0,-19.6 c 0,-2.9 -0.5,-5 -1.4,-6.5 -0.9,-1.4 -2.5,-2.1 -4.8,-2.1 -2.6,0 -4.5,0.8 -5.7,2.3 -1.2,1.6 -1.8,4.1 -1.8,7.7 l 0,18.3 -9.6,0 0,-35 9.2,0 z"
         class="st0" /></g><g
       id="g4165"
       transform="matrix(2.6023569,0,0,2.6023569,-586.87014,-520.62587)"><path
         style="fill:#ffffff"
         inkscape:connector-curvature="0"
         id="path15"
         d="m 234.73722,372.87608 c 0,-2 0.4,-3.7 1.2,-5.2 0.8,-1.5 1.8,-2.8 3,-4 1.2,-1.2 2.6,-2.2 4.1,-3.2 1.5,-0.9 2.9,-1.9 4.3,-2.8 -0.8,-0.9 -1.5,-1.9 -2.3,-2.8 -0.8,-0.9 -1.5,-1.9 -2.1,-2.9 -0.6,-1 -1.2,-2.1 -1.6,-3.2 -0.4,-1.1 -0.6,-2.3 -0.6,-3.6 0,-1.3 0.3,-2.4 0.9,-3.4 0.6,-1 1.4,-1.9 2.3,-2.6 0.9,-0.7 2,-1.3 3.2,-1.7 1.2,-0.4 2.5,-0.6 3.7,-0.6 1.3,0 2.6,0.2 3.8,0.5 1.2,0.4 2.3,0.9 3.2,1.6 0.9,0.7 1.7,1.6 2.3,2.6 0.6,1 0.8,2.2 0.8,3.6 0,1.7 -0.3,3.2 -0.9,4.5 -0.6,1.3 -1.4,2.4 -2.3,3.4 -0.9,1 -2,1.9 -3.2,2.8 -1.2,0.8 -2.4,1.7 -3.6,2.5 l 11.5,14.1 c 0.5,-1.3 0.9,-2.6 1.2,-3.9 0.3,-1.4 0.4,-2.7 0.4,-4.1 l 2.6,0 c -0.1,1.8 -0.3,3.5 -0.8,5.2 -0.4,1.7 -1,3.4 -1.7,5 l 7.8,9.7 -3.5,0 -5.9,-7.2 c -1.5,2.5 -3.4,4.4 -5.7,5.8 -2.3,1.4 -5,2.1 -8,2.1 -2,0 -3.9,-0.3 -5.6,-0.8 -1.7,-0.5 -3.2,-1.3 -4.5,-2.3 -1.3,-1 -2.3,-2.3 -3,-3.9 -0.7,-1.6 -1,-3.2 -1,-5.2 z m 2.6,0 c 0,1.6 0.3,3 1,4.3 0.7,1.3 1.6,2.3 2.7,3.2 1.1,0.9 2.4,1.5 3.8,2 1.4,0.5 2.8,0.7 4.3,0.7 2,0 3.8,-0.4 5.3,-1.2 1.5,-0.8 2.8,-1.7 3.8,-2.6 1,-0.9 1.7,-1.8 2.2,-2.7 0.5,-0.8 0.7,-1.3 0.7,-1.4 l -12.4,-15.5 c -1.3,0.8 -2.6,1.6 -3.9,2.5 -1.3,0.8 -2.5,1.8 -3.7,2.8 -1.1,1 -2,2.2 -2.7,3.5 -0.8,1.2 -1.1,2.7 -1.1,4.4 z m 12.2,-16.4 c 1,-0.6 2,-1.3 3,-2.1 1,-0.7 2,-1.6 2.9,-2.5 0.9,-0.9 1.6,-1.9 2.2,-3 0.6,-1.1 0.8,-2.4 0.8,-3.7 0,-0.9 -0.2,-1.7 -0.7,-2.5 -0.5,-0.7 -1,-1.4 -1.7,-1.9 -0.7,-0.5 -1.5,-1 -2.4,-1.3 -0.9,-0.3 -1.8,-0.4 -2.8,-0.4 -0.9,0 -1.9,0.1 -2.8,0.4 -0.9,0.3 -1.7,0.7 -2.4,1.3 -0.7,0.6 -1.3,1.2 -1.7,1.9 -0.5,0.7 -0.7,1.6 -0.7,2.5 0,1.2 0.2,2.3 0.7,3.3 0.5,1 1,2 1.6,2.9 0.6,0.9 1.3,1.8 2,2.6 0.8,0.9 1.5,1.7 2,2.5 z"
         class="st0" /><path
         style="fill:#ffffff"
         inkscape:connector-curvature="0"
         id="path17"
         d="m 287.33722,336.07608 20.2,32.4 0.1,0 0,-32.4 9.9,0 0,48.3 -10.6,0 -20.1,-32.3 -0.1,0 0,32.3 -9.9,0 0,-48.3 10.5,0 z"
         class="st0" /><path
         style="fill:#ffffff"
         inkscape:connector-curvature="0"
         id="path19"
         d="m 323.63722,359.27608 c 0.9,-2.3 2.1,-4.2 3.7,-5.8 1.6,-1.6 3.5,-2.8 5.7,-3.7 2.2,-0.9 4.7,-1.3 7.4,-1.3 2.8,0 5.2,0.4 7.5,1.3 2.2,0.9 4.1,2.1 5.7,3.7 1.6,1.6 2.8,3.5 3.7,5.8 0.9,2.3 1.3,4.8 1.3,7.6 0,2.8 -0.4,5.3 -1.3,7.6 -0.9,2.3 -2.1,4.2 -3.7,5.8 -1.6,1.6 -3.5,2.8 -5.7,3.7 -2.2,0.9 -4.7,1.3 -7.5,1.3 -2.8,0 -5.2,-0.4 -7.4,-1.3 -2.2,-0.9 -4.1,-2.1 -5.7,-3.7 -1.6,-1.6 -2.8,-3.5 -3.7,-5.8 -0.9,-2.3 -1.3,-4.8 -1.3,-7.6 0,-2.7 0.4,-5.3 1.3,-7.6 z m 8.7,11.7 c 0.3,1.3 0.7,2.5 1.4,3.6 0.7,1.1 1.5,1.9 2.6,2.5 1.1,0.6 2.4,0.9 4.1,0.9 1.6,0 3,-0.3 4.1,-0.9 1.1,-0.6 2,-1.5 2.6,-2.5 0.7,-1.1 1.1,-2.3 1.4,-3.6 0.3,-1.3 0.4,-2.7 0.4,-4.1 0,-1.4 -0.1,-2.8 -0.4,-4.1 -0.3,-1.4 -0.7,-2.5 -1.4,-3.6 -0.7,-1 -1.5,-1.9 -2.6,-2.5 -1.1,-0.7 -2.5,-1 -4.1,-1 -1.6,0 -3,0.3 -4.1,1 -1.1,0.7 -2,1.5 -2.6,2.5 -0.7,1 -1.1,2.2 -1.4,3.6 -0.3,1.4 -0.4,2.7 -0.4,4.1 0,1.5 0.1,2.8 0.4,4.1 z"
         class="st0" /><path
         style="fill:#ffffff"
         inkscape:connector-curvature="0"
         id="path21"
         d="m 392.33722,384.37608 -6.2,-23.5 -0.2,0 -6,23.5 -9.9,0 -11.1,-35 10.1,0 6.4,23.7 0.1,0 5.8,-23.7 9.3,0 6,23.7 0.1,0 6.4,-23.7 9.9,0 -11,35 -9.7,0 z"
         class="st0" /></g><g
       transform="matrix(3.1890034,0,0,3.1890034,24.000003,178.66667)"
       id="g23"><polygon
         style="fill:#fcb315"
         id="polygon25"
         points="127.3,21.2 142.4,21.2 145.5,18.2 145.5,9.1 136.4,0 106.1,0 97,9.1 97,39.4 106.1,48.5 136.4,48.5 145.5,39.4 145.5,30.3 142.4,27.3 127.3,27.3 127.3,30.3 115.2,30.3 115.2,18.2 127.3,18.2 "
         class="st1" /><polygon
         style="fill:#fcb315"
         id="polygon27"
         points="45.5,48.5 48.5,45.5 48.5,3 45.5,0 33.3,0 30.3,3 30.3,15.2 15.2,0 3,0 0,3 0,45.5 3,48.5 15.2,48.5 18.2,45.5 18.2,33.3 33.3,48.5 33.3,48.5 "
         class="st1" /><polygon
         style="fill:#fcb315"
         id="polygon29"
         points="63.6,0 51.5,0 48.5,3 48.5,21.2 63.6,36.4 63.6,45.5 66.7,48.5 78.8,48.5 81.8,45.5 81.8,36.4 97,21.2 97,3 93.9,0 81.8,0 78.8,3 78.8,9.1 72.7,15.2 66.7,9.1 66.7,9.1 66.7,3 "
         class="st1" /></g></g></svg>